<svg width="1024" height="1024" xmlns="http://www.w3.org/2000/svg" version="1.1" class="svg-icon">

 <g>
  <title>Layer 1</title>
  <path id="svg_1" fill="#434c54" d="m805.89,70.41l-644.68,768.3c-5.84,6.96 -4.91,17.55 2.04,23.39l111.57,93.62c6.96,5.84 17.31,4.71 23.15,-2.25l644.68,-768.3c5.84,-6.96 5.15,-17.35 -1.8,-23.19l-111.57,-93.62c-6.96,-5.84 -17.55,-4.91 -23.39,2.05zm94.61,105.56l-189.05,225.3l-78.22,-65.64l189.05,-225.31l78.22,65.65zm-574.85,-9.44l26.32,85.33l85.33,26.32l-85.33,26.31l-26.32,85.34l-26.31,-85.34l-85.33,-26.31l85.33,-26.32l26.31,-85.33zm226.34,-56.2l12.05,39.1l39.1,12.06l-39.1,12.06l-12.05,39.1l-12.06,-39.1l-39.1,-12.06l39.1,-12.06l12.06,-39.1zm-437.19,-14.66l12.06,39.1l39.1,12.06l-39.1,12.05l-12.06,39.1l-12.05,-39.1l-39.1,-12.05l39.1,-12.06l12.05,-39.1zm794.4,265.24l12.05,39.1l39.1,12.06l-39.1,12.06l-12.05,39.1l-12.06,-39.1l-39.1,-12.06l39.1,-12.06l12.06,-39.1z"/>
 </g>
</svg>