<?xml version="1.0" encoding="UTF-8"?>
<svg width="700pt" height="700pt" version="1.1" viewBox="0 0 700 700" xmlns="http://www.w3.org/2000/svg">
 <path d="m420 52.5h-140c-23.207 0-45.461 9.2188-61.871 25.629s-25.629 38.664-25.629 61.871v306.37c-0.13672 10.059 3.4453 19.816 10.059 27.398 6.6133 7.582 15.793 12.457 25.777 13.688 9.9844 1.2305 20.074-1.2695 28.332-7.0195l90.066-60.434c2.0195-1.168 4.5117-1.168 6.5312 0l90.066 60.434c6.1836 4.0664 13.352 6.3867 20.746 6.7148 7.3906 0.32812 14.734-1.3477 21.254-4.8477 6.5234-3.457 11.973-8.6328 15.758-14.969 3.7812-6.3359 5.7578-13.586 5.7109-20.965v-306.37c0-23.086-9.1211-45.234-25.383-61.625-16.258-16.391-38.332-25.691-61.418-25.875zm52.5 393.87c0.12109 2.168-1.0781 4.1914-3.0352 5.1328-1.8438 1.1914-4.2188 1.1914-6.0664 0l-90.066-60.668c-6.668-4.5547-14.555-6.9883-22.633-6.9883-8.0742 0-15.965 2.4336-22.633 6.9883l-91.465 60.434c-1.8477 1.1914-4.2227 1.1914-6.0664 0-1.957-0.9375-3.1562-2.9648-3.0352-5.1328v-306.13c0-13.926 5.5312-27.277 15.375-37.125 9.8477-9.8438 23.199-15.375 37.125-15.375h140c13.926 0 27.277 5.5312 37.125 15.375 9.8438 9.8477 15.375 23.199 15.375 37.125z"/>
</svg>
