<svg width="700" height="700" xmlns="http://www.w3.org/2000/svg" version="1.1">

 <g>
  <title>Layer 1</title>
  <path stroke="null" fill="#434c54" id="svg_1" d="m472.50428,1.00061l-243.78465,0c-40.41079,0 -79.1621,14.81028 -107.73714,41.17376s-44.62826,62.11488 -44.62826,99.39762l0,492.19261c-0.23807,16.16009 5.99937,31.835 17.51593,44.01571c11.51586,12.18071 27.50065,20.01254 44.88598,21.99018c17.38602,1.97684 34.95524,-2.03949 49.33505,-11.27704l156.83363,-97.08904c3.51659,-1.87643 7.85631,-1.87643 11.3729,0l156.83363,97.08904c10.76762,6.53279 23.25009,10.26043 36.1254,10.78753c12.86939,0.52713 25.65659,-2.16512 37.00999,-7.78798c11.35932,-5.55377 20.84881,-13.86885 27.4397,-24.04815c6.58428,-10.17881 10.02617,-21.82632 9.9445,-33.6809l0,-492.19261c0,-37.08835 -15.88274,-72.66978 -44.1999,-99.00241c-28.31036,-26.33263 -66.74824,-41.27336 -106.94832,-41.56896l0.00157,0.00064zm91.41924,632.76399c0.21086,3.48296 -1.87732,6.73361 -5.28525,8.246c-3.21064,1.91402 -7.34628,1.91402 -10.56354,0l-156.83363,-97.46496c-11.61111,-7.31726 -25.3449,-11.22691 -39.41127,-11.22691c-14.05976,0 -27.80016,3.90965 -39.41127,11.22691l-159.26973,97.08904c-3.21743,1.91402 -7.35307,1.91402 -10.56354,0c-3.40776,-1.50612 -5.49595,-4.76304 -5.28525,-8.246l0,-491.80704c0,-22.37254 9.63158,-43.82132 26.77278,-59.64243c17.14799,-15.81436 40.39686,-24.7004 64.64646,-24.7004l243.78465,0c24.24961,0 47.49796,8.88604 64.64646,24.7004c17.1412,15.82063 26.77278,37.26989 26.77278,59.64243l0.00035,492.18297z"/>
  <rect id="svg_3" height="535" width="444" y="49.5" x="128" stroke="null" fill="#434c54"/>
  <rect id="svg_4" height="120" width="132" y="524.5" x="452" stroke="null" fill="#434c54"/>
  <rect id="svg_6" height="120" width="132" y="524.5" x="114" stroke="null" fill="#434c54"/>
 </g>
</svg>