<svg width="24" height="24" xmlns="http://www.w3.org/2000/svg" fill="none">

 <g>
  <title>Layer 1</title>
  <g id="Interface / Filter">
   <path stroke-linejoin="round" stroke-linecap="round" stroke-width="2" stroke="#434c54" d="m20,5.6001c0,-0.56005 -0.0004,-0.84029 -0.1094,-1.0542c-0.0958,-0.18816 -0.2483,-0.34103 -0.4364,-0.43691c-0.2139,-0.10899 -0.4945,-0.10899 -1.0546,-0.10899l-12.79999,0c-0.56005,0 -0.8398,0 -1.05371,0.10899c-0.18816,0.09588 -0.34103,0.24875 -0.43691,0.43691c-0.10899,0.21391 -0.10899,0.49415 -0.10899,1.0542l0,0.73726c0,0.24459 0,0.36697 0.02763,0.48206c0.0245,0.10204 0.065,0.19951 0.11983,0.28898c0.06182,0.10088 0.14845,0.18751 0.32129,0.36035l5.06274,5.06275c0.17294,0.1729 0.25895,0.2589 0.32079,0.3599c0.05483,0.0894 0.09588,0.1872 0.12038,0.2893c0.02734,0.1139 0.02734,0.2348 0.02734,0.4745l0,4.7558c0,0.8572 0,1.2861 0.1805,1.5442c0.1577,0.2254 0.4009,0.3758 0.673,0.416c0.3116,0.046 0.6952,-0.1455 1.4619,-0.5288l0.8,-0.4c0.3211,-0.1605 0.4812,-0.2411 0.5985,-0.3609c0.1037,-0.1059 0.1831,-0.233 0.2314,-0.3731c0.0547,-0.1585 0.0547,-0.3384 0.0547,-0.6974l0,-4.3484c0,-0.2446 0,-0.3668 0.0276,-0.4819c0.0245,-0.1021 0.065,-0.1999 0.1199,-0.2893c0.0614,-0.1003 0.1472,-0.1861 0.3178,-0.3567l0.0035,-0.0032l5.0627,-5.06275c0.1729,-0.17295 0.2589,-0.25943 0.3208,-0.36035c0.0548,-0.08947 0.0959,-0.18694 0.1204,-0.28898c0.0273,-0.11391 0.0273,-0.23498 0.0273,-0.47462l0,-0.7447z" id="Vector"/>
  </g>
 </g>
</svg>